<!DOCTYPE svg PUBLIC "-//W3C//DTD SVG 1.1//EN" "http://www.w3.org/Graphics/SVG/1.1/DTD/svg11.dtd">
<!-- Uploaded to: SVG Repo, www.svgrepo.com, Transformed by: SVG Repo Mixer Tools -->
<svg fill="#000000" height="256px" width="256px" version="1.1" id="Layer_1" xmlns="http://www.w3.org/2000/svg" xmlns:xlink="http://www.w3.org/1999/xlink" viewBox="-102.4 -102.4 716.80 716.80" xml:space="preserve" data-darkreader-inline-fill="" style="--darkreader-inline-fill: var(--darkreader-background-000000, #000000); --darkreader-inline-stroke: var(--darkreader-text-000000, #e8e6e3);" transform="matrix(1, 0, 0, 1, 0, 0)" stroke="#000000" stroke-width="0.00512" data-darkreader-inline-stroke="">
<g id="SVGRepo_bgCarrier" stroke-width="0" transform="translate(0,0), scale(1)">
<path transform="translate(-102.4, -102.4), scale(44.8)" fill="#00bfff" d="M9.166.33a2.25 2.25 0 00-2.332 0l-5.25 3.182A2.25 2.25 0 00.5 5.436v5.128a2.25 2.25 0 001.084 1.924l5.25 3.182a2.25 2.25 0 002.332 0l5.25-3.182a2.25 2.25 0 001.084-1.924V5.436a2.25 2.25 0 00-1.084-1.924L9.166.33z" strokewidth="0" data-darkreader-inline-fill="" style="--darkreader-inline-fill: var(--darkreader-background-00bfff, #0099cc);"/>
</g>
<g id="SVGRepo_tracerCarrier" stroke-linecap="round" stroke-linejoin="round" stroke="#CCCCCC" stroke-width="9.216" data-darkreader-inline-stroke="" style="--darkreader-inline-stroke: var(--darkreader-text-cccccc, #c8c3bc);"> <g> <g> <path d="M351.37,343.845v-39.787h58.66V170.014h-58.66h-33.391h-15.952v-17.082h79.471V0H130.504v152.932h79.47v17.082h-15.951 h-33.391h-58.661v134.045h58.661v39.787c-37.215,9.177-64.902,42.826-64.902,82.833c0,47.047,38.275,85.321,85.32,85.321h149.898 c47.046,0,85.32-38.275,85.32-85.321C416.27,386.67,388.585,353.022,351.37,343.845z M351.37,203.405h25.268v67.262H351.37 V203.405z M163.896,119.541v-86.15h184.211v86.15H163.896z M268.634,152.932v17.082h-25.268v-17.082H268.634z M194.024,304.059 V203.405h123.954v100.654v37.299H194.024V304.059z M135.363,270.668v-67.262h25.269v67.262H135.363z M330.95,478.609H181.052 c-28.634,0-51.929-23.296-51.929-51.93s23.296-51.929,51.929-51.929H330.95c28.634,0,51.929,23.296,51.929,51.929 C382.879,455.313,359.584,478.609,330.95,478.609z"/> </g> </g> <g> <g> <path d="M209.81,226.192v92.383h92.383v-92.383H209.81z M268.801,285.183h-25.6v-25.6h25.6V285.183z"/> </g> </g> <g> <g> <path d="M203.132,384.122c-23.465,0-42.555,19.09-42.555,42.555c0,23.465,19.09,42.555,42.555,42.555 c23.465,0,42.555-19.09,42.555-42.555C245.687,403.212,226.597,384.122,203.132,384.122z M203.132,435.842 c-5.053,0-9.164-4.11-9.164-9.164s4.11-9.164,9.164-9.164s9.164,4.11,9.164,9.164S208.185,435.842,203.132,435.842z"/> </g> </g> <g> <g> <path d="M308.871,384.122c-23.465,0-42.555,19.09-42.555,42.555c0,23.465,19.09,42.555,42.555,42.555s42.555-19.09,42.555-42.555 C351.426,403.212,332.336,384.122,308.871,384.122z M308.871,435.842c-5.053,0-9.164-4.11-9.164-9.164s4.11-9.164,9.164-9.164 s9.164,4.11,9.164,9.164S313.924,435.842,308.871,435.842z"/> </g> </g> <g> <g> <circle cx="217.045" cy="76.466" r="16.696"/> </g> </g> <g> <g> <circle cx="294.958" cy="76.466" r="16.696"/> </g> </g> </g>
<g id="SVGRepo_iconCarrier"> <g> <g> <path d="M351.37,343.845v-39.787h58.66V170.014h-58.66h-33.391h-15.952v-17.082h79.471V0H130.504v152.932h79.47v17.082h-15.951 h-33.391h-58.661v134.045h58.661v39.787c-37.215,9.177-64.902,42.826-64.902,82.833c0,47.047,38.275,85.321,85.32,85.321h149.898 c47.046,0,85.32-38.275,85.32-85.321C416.27,386.67,388.585,353.022,351.37,343.845z M351.37,203.405h25.268v67.262H351.37 V203.405z M163.896,119.541v-86.15h184.211v86.15H163.896z M268.634,152.932v17.082h-25.268v-17.082H268.634z M194.024,304.059 V203.405h123.954v100.654v37.299H194.024V304.059z M135.363,270.668v-67.262h25.269v67.262H135.363z M330.95,478.609H181.052 c-28.634,0-51.929-23.296-51.929-51.93s23.296-51.929,51.929-51.929H330.95c28.634,0,51.929,23.296,51.929,51.929 C382.879,455.313,359.584,478.609,330.95,478.609z"/> </g> </g> <g> <g> <path d="M209.81,226.192v92.383h92.383v-92.383H209.81z M268.801,285.183h-25.6v-25.6h25.6V285.183z"/> </g> </g> <g> <g> <path d="M203.132,384.122c-23.465,0-42.555,19.09-42.555,42.555c0,23.465,19.09,42.555,42.555,42.555 c23.465,0,42.555-19.09,42.555-42.555C245.687,403.212,226.597,384.122,203.132,384.122z M203.132,435.842 c-5.053,0-9.164-4.11-9.164-9.164s4.11-9.164,9.164-9.164s9.164,4.11,9.164,9.164S208.185,435.842,203.132,435.842z"/> </g> </g> <g> <g> <path d="M308.871,384.122c-23.465,0-42.555,19.09-42.555,42.555c0,23.465,19.09,42.555,42.555,42.555s42.555-19.09,42.555-42.555 C351.426,403.212,332.336,384.122,308.871,384.122z M308.871,435.842c-5.053,0-9.164-4.11-9.164-9.164s4.11-9.164,9.164-9.164 s9.164,4.11,9.164,9.164S313.924,435.842,308.871,435.842z"/> </g> </g> <g> <g> <circle cx="217.045" cy="76.466" r="16.696"/> </g> </g> <g> <g> <circle cx="294.958" cy="76.466" r="16.696"/> </g> </g> </g>
</svg>